<?xml version="1.0" standalone="no"?>
<!DOCTYPE svg PUBLIC "-//W3C//DTD SVG 20010904//EN"
 "http://www.w3.org/TR/2001/REC-SVG-20010904/DTD/svg10.dtd">
<svg version="1.0" xmlns="http://www.w3.org/2000/svg"
 width="167.000000pt" height="100.000000pt" viewBox="0 0 167.000000 100.000000"
 preserveAspectRatio="xMidYMid meet">

<g transform="translate(0.000000,100.000000) scale(0.100000,-0.100000)"
fill="#000000" stroke="none">
<path d="M0 500 l0 -500 835 0 835 0 0 500 0 500 -835 0 -835 0 0 -500z m398
315 c23 -10 42 -19 42 -21 0 -10 -45 -94 -51 -94 -3 0 -26 7 -49 15 -89 31
-154 12 -166 -50 -8 -43 14 -66 116 -123 101 -56 123 -87 123 -171 0 -132
-106 -221 -264 -221 -62 0 -63 1 -74 71 l-7 44 74 0 c87 1 131 20 147 65 19
55 -8 91 -111 149 -95 53 -128 110 -115 201 8 62 43 109 101 137 43 21 61 23
121 20 39 -3 89 -13 113 -22z m541 -4 c52 -27 106 -92 121 -147 25 -87 1 -202
-54 -262 -49 -55 -90 -66 -228 -64 l-128 2 0 -93 0 -92 -62 3 -63 3 0 334 0
334 125 4 c182 6 243 1 289 -22z m642 -6 c15 -71 25 -66 -141 -64 -97 2 -155
-2 -161 -8 -17 -17 -24 -136 -9 -162 12 -23 13 -23 162 -16 l150 8 -7 -49 c-4
-27 -9 -51 -11 -53 -2 -2 -66 -3 -142 -2 -168 3 -167 4 -160 -104 7 -111 4
-109 186 -102 l154 7 -7 -53 c-4 -28 -8 -52 -9 -52 0 -1 -101 1 -224 3 l-223
4 7 41 c4 23 7 175 7 337 l-1 295 211 0 212 -1 6 -29z"/>
<path d="M649 718 c-12 -22 -9 -272 4 -284 3 -4 50 -7 104 -8 80 -1 104 2 126
17 44 29 67 75 67 135 0 61 -17 99 -60 136 -29 24 -38 26 -130 26 -92 0 -100
-2 -111 -22z"/>
</g>
</svg>
